<?xml version="1.0" encoding="UTF-8" standalone="no"?>
<!DOCTYPE svg PUBLIC "-//W3C//DTD SVG 1.1//EN" "http://www.w3.org/Graphics/SVG/1.1/DTD/svg11.dtd">
<svg width="100%" height="100%" viewBox="0 0 1040 650" version="1.1" xmlns="http://www.w3.org/2000/svg" xmlns:xlink="http://www.w3.org/1999/xlink" xml:space="preserve" xmlns:serif="http://www.serif.com/" style="fill-rule:evenodd;clip-rule:evenodd;stroke-linecap:square;stroke-miterlimit:1.5;">
    <g transform="matrix(6.50879,0,0,6.50879,-4356.66,-748.873)">
        <g transform="matrix(0.651158,0,0,0.651158,530.394,28.9997)">
            <g transform="matrix(1,0,0,1,-33.9091,0.902907)">
                <g>
                    <text x="257.367px" y="247.994px" style="font-family:'CenturyGothic-Bold', 'Century Gothic';font-weight:700;font-size:75px;fill:rgb(30,30,30);">c</text>
                    <g transform="matrix(50,0,0,50,448.394,247.994)">
                    </g>
                    <text x="305.377px" y="247.994px" style="font-family:'CenturyGothic-Bold', 'Century Gothic';font-weight:700;font-size:50px;fill:rgb(30,30,30);">abbie</text>
                </g>
            </g>
            <g transform="matrix(1.35587,0,0,1.69928,-144.648,-143.936)">
                <path d="M393.171,185.185C393.041,185.168 391.389,184.954 389.76,184.853C381.328,184.331 361.853,184.106 348.54,184.384C343.614,184.487 339.543,184.657 337.222,184.911C336.683,184.97 336.056,185.086 335.909,185.114C335.429,185.393 334.309,186.376 332.762,187.741C325.534,194.121 310.554,208.538 310.554,208.538C309.889,209.178 308.697,209.267 307.894,208.736C307.092,208.205 306.98,207.254 307.646,206.614C307.646,206.614 322.698,192.129 329.959,185.72C331.954,183.959 333.451,182.781 333.984,182.516C334.38,182.32 335.307,182.078 336.709,181.924C339.115,181.661 343.335,181.478 348.441,181.371C361.881,181.09 381.541,181.32 390.052,181.848C392.508,182 394.148,182.23 394.683,182.421C395.406,182.681 397.086,183.863 399.208,185.679C406.691,192.084 421.319,206.633 421.319,206.633C421.971,207.282 421.84,208.231 421.027,208.752C420.214,209.272 419.024,209.168 418.371,208.519C418.371,208.519 403.867,194.087 396.444,187.734C394.873,186.39 393.733,185.41 393.171,185.185Z" style="fill:rgb(35,31,32);"/>
            </g>
        </g>
        <g transform="matrix(2.19229,0,0,2.19229,-972.311,-212.345)">
            <circle cx="816.077" cy="179.701" r="1.603" style="fill:rgb(35,31,32);stroke:white;stroke-opacity:0;stroke-width:0.41px;"/>
        </g>
    </g>
</svg>
