<svg width="200" height="81" viewBox="0 0 200 81" fill="none" xmlns="http://www.w3.org/2000/svg">
<path d="M28.8575 56.5187C33.4646 56.5187 37.2129 60.1429 37.2129 64.5964C37.2129 69.0499 33.4646 72.6733 28.8575 72.6733C24.2496 72.6733 20.5012 69.0499 20.5012 64.5964C20.5012 60.1429 24.2496 56.5187 28.8575 56.5187Z" fill="#1E1E1E"/>
<path d="M16.9287 64.5965C16.9287 58.2392 22.2793 53.0669 28.8567 53.0669C35.4331 53.0669 40.7838 58.2392 40.7838 64.5965C40.7838 70.9537 35.4331 76.126 28.8567 76.126C22.2793 76.126 16.9287 70.9537 16.9287 64.5965ZM12.7891 64.5965C12.7891 73.1738 19.9827 80.1276 28.8558 80.1276C37.7297 80.1276 44.9225 73.1738 44.9225 64.5965C44.9225 56.0192 37.7297 49.0645 28.8558 49.0645C19.9827 49.0645 12.7891 56.0192 12.7891 64.5965Z" fill="#1E1E1E"/>
<path d="M159.042 56.5187C163.649 56.5187 167.396 60.1429 167.396 64.5964C167.396 69.0499 163.649 72.6733 159.042 72.6733C154.435 72.6733 150.686 69.0499 150.686 64.5964C150.686 60.1429 154.435 56.5187 159.042 56.5187Z" fill="#1E1E1E"/>
<path d="M147.115 64.5965C147.115 58.2392 152.467 53.0669 159.043 53.0669C165.62 53.0669 170.97 58.2392 170.97 64.5965C170.97 70.9537 165.62 76.126 159.043 76.126C152.467 76.126 147.115 70.9537 147.115 64.5965ZM142.977 64.5965C142.977 73.1738 150.169 80.1276 159.042 80.1276C167.916 80.1276 175.11 73.1738 175.11 64.5965C175.11 56.0192 167.916 49.0645 159.042 49.0645C150.169 49.0645 142.977 56.0192 142.977 64.5965Z" fill="#1E1E1E"/>
<path d="M26.9967 23.0899C38.5602 8.84067 53.512 6.68254 68.6455 6.45577V23.0187L26.9967 23.0899ZM74.0378 6.43987C79.2491 6.46999 84.4318 6.38213 89.4691 6.37459C111.782 6.34112 131.675 22.9099 131.675 22.9099L74.0378 23.0095V6.43987ZM178.82 32.7575C178.82 32.7575 190.087 37.9014 190.339 47.2477C190.339 47.2477 182.1 48.7104 179.241 45.5406C176.383 42.3716 178.82 32.7575 178.82 32.7575ZM1.18169 64.5964H10.2158C10.2158 64.5964 9.68339 45.7264 28.8561 45.7264C48.028 45.7264 48.7396 64.5964 48.7396 64.5964H139.604C139.604 64.5964 139.604 45.9833 159.042 45.9833C178.479 45.9833 178.925 64.5964 178.925 64.5964C196.195 64.5964 199.118 65.7588 199.649 56.5187C200.18 47.2787 193.803 47.01 193.803 47.01C190.615 23.6388 143.855 22.3551 143.855 22.3551C143.855 22.3551 115.692 2.06503 98.4227 1.55206C81.1535 1.03826 58.8358 -0.759202 41.5667 4.8901C24.2967 10.5402 7.29242 40.8461 7.29242 40.8461C-3.06872 48.0376 1.18169 64.5964 1.18169 64.5964Z" fill="#1E1E1E"/>
</svg>
