<?xml version="1.0" encoding="UTF-8" standalone="no"?>
<svg
   width="282"
   height="282"
   viewBox="0 0 282 282"
   fill="none"
   version="1.1"
   id="svg4"
   sodipodi:docname="Employee Rate.svg"
   inkscape:version="1.3.2 (091e20e, 2023-11-25, custom)"
   xmlns:inkscape="http://www.inkscape.org/namespaces/inkscape"
   xmlns:sodipodi="http://sodipodi.sourceforge.net/DTD/sodipodi-0.dtd"
   xmlns="http://www.w3.org/2000/svg"
   xmlns:svg="http://www.w3.org/2000/svg">
  <sodipodi:namedview
     id="namedview4"
     pagecolor="#505050"
     bordercolor="#ffffff"
     borderopacity="1"
     inkscape:showpageshadow="0"
     inkscape:pageopacity="0"
     inkscape:pagecheckerboard="1"
     inkscape:deskcolor="#505050"
     inkscape:zoom="2.3996194"
     inkscape:cx="67.30234"
     inkscape:cy="138.56364"
     inkscape:window-width="2560"
     inkscape:window-height="1057"
     inkscape:window-x="-8"
     inkscape:window-y="-8"
     inkscape:window-maximized="1"
     inkscape:current-layer="svg4" />
  <g
     clip-path="url(#clip0_3_65)"
     id="g4"
     transform="translate(17.216065,24.30229)">
    <path
       fill-rule="evenodd"
       clip-rule="evenodd"
       d="m 241.016,73.1205 c -0.228,-0.6796 -0.639,-1.2831 -1.188,-1.7438 -0.549,-0.4606 -1.215,-0.7606 -1.924,-0.8668 l -19.453,-2.9763 -8.735,-18.6089 c -0.314,-0.6684 -0.812,-1.2335 -1.435,-1.6294 -0.624,-0.3959 -1.347,-0.6061 -2.086,-0.6061 -0.738,0 -1.462,0.2102 -2.085,0.6061 -0.624,0.3959 -1.121,0.961 -1.436,1.6294 l -8.726,18.6089 -19.453,2.9763 c -0.708,0.1078 -1.372,0.4085 -1.919,0.8691 -0.547,0.4606 -0.957,1.0632 -1.184,1.7415 -0.228,0.6784 -0.263,1.4063 -0.104,2.1037 0.16,0.6973 0.509,1.3372 1.008,1.8492 l 14.193,14.5432 -3.361,20.5854 c -0.118,0.721 -0.03,1.46 0.253,2.133 0.283,0.673 0.749,1.253 1.346,1.674 0.598,0.42 1.301,0.664 2.03,0.704 0.729,0.04 1.455,-0.127 2.094,-0.48 l 17.352,-9.595 17.356,9.595 c 0.575,0.32 1.222,0.487 1.879,0.486 0.565,0 1.122,-0.122 1.635,-0.358 0.512,-0.237 0.967,-0.582 1.332,-1.011 0.366,-0.43 0.634,-0.934 0.785,-1.478 0.152,-0.543 0.183,-1.113 0.092,-1.67 l -3.361,-20.5854 14.193,-14.5432 c 0.499,-0.5122 0.848,-1.1522 1.007,-1.8496 0.159,-0.6973 0.123,-1.4251 -0.105,-2.1033 z m -22.961,16.0148 c 0.183,-0.5804 0.5,-1.1098 0.925,-1.5455 l 10.256,-10.532 -14.007,-2.1437 c -0.631,-0.0968 -1.229,-0.3476 -1.741,-0.7303 -0.511,-0.3827 -0.921,-0.8855 -1.192,-1.464 l -6.093,-12.983 -6.112,12.983 c -0.271,0.5785 -0.681,1.0813 -1.192,1.464 -0.512,0.3827 -1.11,0.6335 -1.742,0.7303 l -14.006,2.1437 10.275,10.532 c 0.425,0.4357 0.742,0.9651 0.925,1.5455 0.183,0.5805 0.228,1.1958 0.13,1.7965 l -2.385,14.6172 12.228,-6.7581 c 0.575,-0.3175 1.222,-0.484 1.879,-0.484 0.657,0 1.304,0.1665 1.879,0.484 l 12.229,6.7581 -2.385,-14.6172 c -0.098,-0.6007 -0.054,-1.216 0.129,-1.7965 z"
       fill="#fcb331"
       id="path1" />
    <path
       fill-rule="evenodd"
       clip-rule="evenodd"
       d="m 159.313,34.2143 c -0.228,-0.6797 -0.639,-1.2832 -1.188,-1.7438 -0.549,-0.4607 -1.215,-0.7607 -1.924,-0.8668 l -19.453,-2.9764 -8.727,-18.6088 c -0.314,-0.66843 -0.812,-1.23359 -1.436,-1.62946 -0.623,-0.39586 -1.346,-0.60608 -2.085,-0.60608 -0.739,0 -1.462,0.21022 -2.085,0.60608 -0.624,0.39587 -1.122,0.96103 -1.436,1.62946 l -8.734,18.6088 -19.4536,2.9764 c -0.7072,0.1078 -1.371,0.4085 -1.9185,0.869 -0.5474,0.4606 -0.9572,1.0632 -1.1844,1.7416 -0.2272,0.6784 -0.263,1.4062 -0.1034,2.1036 0.1597,0.6974 0.5085,1.3372 1.0081,1.8492 l 14.1928,14.5432 -3.361,20.5853 c -0.118,0.7207 -0.03,1.46 0.253,2.1333 0.283,0.6733 0.749,1.2533 1.346,1.6738 0.597,0.4205 1.301,0.6645 2.03,0.704 0.729,0.0396 1.455,-0.1269 2.094,-0.4804 l 17.352,-9.5943 17.356,9.5943 c 0.575,0.3202 1.222,0.4876 1.879,0.4863 0.564,6e-4 1.122,-0.1216 1.634,-0.358 0.513,-0.2364 0.968,-0.5814 1.333,-1.0111 0.366,-0.4298 0.634,-0.9339 0.785,-1.4775 0.152,-0.5435 0.183,-1.1135 0.092,-1.6704 l -3.361,-20.5853 14.193,-14.5432 c 0.499,-0.5122 0.847,-1.1522 1.007,-1.8495 0.159,-0.6974 0.123,-1.4251 -0.105,-2.1033 z m -22.961,16.0148 c 0.183,-0.5804 0.5,-1.1098 0.925,-1.5456 l 10.255,-10.5319 -14.006,-2.1438 c -0.631,-0.0967 -1.229,-0.3475 -1.741,-0.7302 -0.512,-0.3827 -0.921,-0.8856 -1.192,-1.4641 l -6.093,-12.983 -6.093,12.983 c -0.271,0.5785 -0.68,1.0814 -1.192,1.4641 -0.512,0.3827 -1.11,0.6335 -1.741,0.7302 l -14.026,2.1438 10.275,10.5319 c 0.425,0.4358 0.742,0.9652 0.925,1.5456 0.183,0.5804 0.227,1.1957 0.13,1.7964 l -2.385,14.6171 12.228,-6.758 c 0.575,-0.3174 1.222,-0.4839 1.879,-0.4839 0.657,0 1.304,0.1665 1.879,0.4839 l 12.228,6.758 -2.385,-14.6171 c -0.097,-0.6007 -0.053,-1.216 0.13,-1.7964 z"
       fill="#fcb331"
       id="path2" />
    <path
       fill-rule="evenodd"
       clip-rule="evenodd"
       d="M 177.829,247.861 C 177.1,248.59 176.11,249 175.078,249 H 73.9219 c -1.0319,0 -2.0215,-0.41 -2.7511,-1.139 -0.7296,-0.73 -1.1395,-1.72 -1.1395,-2.751 v -1.125 c 0.0155,-10.167 3.7443,-19.979 10.4854,-27.591 6.7411,-7.611 16.0303,-12.499 26.1213,-13.743 -3.432,-2.22 -6.37,-5.125 -8.6293,-8.532 -2.1787,-3.327 -3.5828,-7.1 -4.1085,-11.042 -2.506,-0.997 -4.6459,-2.738 -6.1312,-4.99 -1.4854,-2.251 -2.2445,-4.903 -2.1752,-7.6 -0.0104,-1.836 0.3483,-3.656 1.0547,-5.35 0.7064,-1.695 1.7462,-3.231 3.0576,-4.516 -0.1271,-0.356 -0.2018,-0.728 -0.2217,-1.105 v -9.338 c 0,-16.076 10.9756,-25.678 29.3626,-25.678 h 11.306 c 18.387,0 29.363,9.594 29.363,25.678 v 9.338 c -0.02,0.377 -0.095,0.749 -0.222,1.105 1.311,1.285 2.351,2.821 3.058,4.516 0.706,1.694 1.065,3.514 1.054,5.35 0.024,3.352 -1.155,6.602 -3.322,9.159 -1.332,1.561 -3.051,2.746 -4.984,3.435 -0.592,3.983 -2.033,7.792 -4.225,11.169 -2.191,3.378 -5.083,6.245 -8.478,8.409 10.084,1.25 19.365,6.139 26.099,13.749 6.734,7.609 10.458,17.416 10.473,27.577 v 1.125 c 0,1.031 -0.41,2.021 -1.14,2.751 z m -53.298,-7.696 13.222,-29.484 -25.703,0.005 z m 37.938,-18.848 c -4.968,-5.515 -11.605,-9.251 -18.897,-10.636 l -13.851,29.484 41.358,1.054 c -0.618,-7.397 -3.642,-14.387 -8.61,-19.902 z m -43.622,-89.036 c -8.058,0 -21.5814,2.335 -21.5814,17.897 v 5.447 h 11.2284 c 4.632,-0.035 9.204,-1.049 13.417,-2.974 4.212,-1.926 7.97,-4.72 11.028,-8.2 0.375,-0.384 0.822,-0.689 1.317,-0.897 0.494,-0.209 1.025,-0.316 1.562,-0.316 0.536,0 1.067,0.107 1.562,0.316 0.494,0.208 0.942,0.513 1.317,0.897 l 5.318,5.836 c 2.057,2.314 4.737,3.987 7.719,4.817 v -4.926 c 0,-15.562 -13.523,-17.897 -21.581,-17.897 z m -17.379,47.524 c 0.027,3.579 1.094,7.073 3.069,10.058 v 0.019 c 2.194,3.257 5.196,5.888 8.711,7.637 l 7.393,3.86 c 1.213,0.586 2.543,0.89 3.89,0.89 1.347,0 2.677,-0.304 3.891,-0.89 l 7.361,-3.84 c 3.396,-1.589 6.289,-4.082 8.362,-7.207 2.073,-3.125 3.245,-6.76 3.387,-10.507 0,-1.032 0.41,-2.022 1.14,-2.751 0.73,-0.73 1.719,-1.14 2.751,-1.14 0.532,-0.016 1.055,-0.147 1.532,-0.383 0.478,-0.237 0.899,-0.573 1.234,-0.986 0.953,-1.143 1.463,-2.59 1.436,-4.078 0.129,-1.269 -0.235,-2.54 -1.015,-3.55 -0.78,-1.009 -1.918,-1.681 -3.179,-1.877 -0.894,-0.008 -1.758,-0.328 -2.441,-0.905 -0.684,-0.577 -1.144,-1.374 -1.302,-2.254 -3.563,-1.337 -6.762,-3.494 -9.337,-6.295 h -6.35 c -6.825,4.995 -15.049,7.717 -23.507,7.781 h -7.805 c -0.345,0.509 -0.8089,0.927 -1.3508,1.218 -0.5419,0.291 -1.1461,0.447 -1.7613,0.455 -1.2026,0.311 -2.2678,1.013 -3.0282,1.996 -0.7604,0.982 -1.173,2.189 -1.173,3.431 0,1.243 0.4126,2.45 1.173,3.432 0.7604,0.982 1.8256,1.684 3.0282,1.996 1.0318,0 2.0214,0.41 2.7511,1.139 0.73,0.73 1.14,1.719 1.14,2.751 z m 3.962,30.881 13.447,29.479 -40.9556,1.054 c 0.6192,-7.397 3.6448,-14.388 8.6138,-19.902 4.9677,-5.513 11.6043,-9.247 18.8948,-10.631 z"
       fill="#f0f0f0"
       id="path3" />
    <path
       fill-rule="evenodd"
       clip-rule="evenodd"
       d="M 77.6102,73.1205 C 77.3823,72.4409 76.971,71.8374 76.4217,71.3767 75.8725,70.9161 75.2066,70.6161 74.4977,70.5099 L 55.0446,67.5336 46.3101,48.9247 c -0.3142,-0.6684 -0.8121,-1.2335 -1.4356,-1.6294 -0.6235,-0.3959 -1.3468,-0.6061 -2.0854,-0.6061 -0.7386,0 -1.4619,0.2102 -2.0854,0.6061 -0.6235,0.3959 -1.1214,0.961 -1.4356,1.6294 l -8.7267,18.6089 -19.4531,2.9763 c -0.7072,0.1078 -1.37107,0.4085 -1.9185,0.8691 -0.54742,0.4606 -0.95726,1.0632 -1.18446,1.7415 -0.22719,0.6784 -0.26295,1.4063 -0.10333,2.1037 0.15961,0.6973 0.50842,1.3372 1.00807,1.8492 L 23.0831,91.6166 19.7216,112.202 c -0.1176,0.721 -0.0299,1.46 0.253,2.133 0.2829,0.673 0.7496,1.253 1.3466,1.674 0.5971,0.42 1.3004,0.664 2.0296,0.704 0.7293,0.04 1.4549,-0.127 2.0939,-0.48 l 17.3522,-9.595 17.3561,9.595 c 0.5744,0.32 1.2214,0.487 1.8791,0.486 0.5643,0 1.1219,-0.122 1.6343,-0.358 0.5123,-0.237 0.9671,-0.582 1.3328,-1.011 0.3657,-0.43 0.6335,-0.934 0.7849,-1.478 0.1514,-0.543 0.1828,-1.113 0.092,-1.67 L 62.5146,91.6166 76.7076,77.0734 c 0.4993,-0.5122 0.8477,-1.1522 1.0069,-1.8496 0.1593,-0.6973 0.1232,-1.4251 -0.1043,-2.1033 z M 54.6489,89.1353 c 0.1831,-0.5804 0.4999,-1.1098 0.9248,-1.5455 L 65.8488,77.0578 51.8231,74.9141 c -0.6315,-0.0968 -1.2295,-0.3476 -1.7412,-0.7303 -0.5116,-0.3827 -0.9211,-0.8855 -1.1923,-1.464 l -6.0927,-12.983 -6.1122,12.983 c -0.2712,0.5785 -0.6807,1.0813 -1.1923,1.464 -0.5117,0.3827 -1.1097,0.6335 -1.7412,0.7303 l -14.0063,2.1437 10.2752,10.532 c 0.4249,0.4357 0.7416,0.9651 0.9247,1.5455 0.1832,0.5805 0.2275,1.1958 0.1296,1.7965 l -2.3849,14.6172 12.2282,-6.7581 c 0.5755,-0.3175 1.222,-0.484 1.8792,-0.484 0.6572,0 1.3037,0.1665 1.8791,0.484 l 12.2283,6.7581 -2.385,-14.6172 c -0.0979,-0.6007 -0.0535,-1.216 0.1296,-1.7965 z"
       fill="#fcb331"
       id="path4" />
  </g>
  <defs
     id="defs4">
    <clipPath
       id="clip0_3_65">
      <rect
         width="249"
         height="249"
         fill="#ffffff"
         id="rect4"
         x="0"
         y="0" />
    </clipPath>
  </defs>
</svg>
