<?xml version="1.0" encoding="UTF-8" standalone="no"?>
<!DOCTYPE svg PUBLIC "-//W3C//DTD SVG 1.1//EN" "http://www.w3.org/Graphics/SVG/1.1/DTD/svg11.dtd">
<svg width="100%" height="100%" viewBox="0 0 3544 3544" version="1.1" xmlns="http://www.w3.org/2000/svg" xmlns:xlink="http://www.w3.org/1999/xlink" xml:space="preserve" xmlns:serif="http://www.serif.com/" style="fill-rule:evenodd;clip-rule:evenodd;stroke-linejoin:round;stroke-miterlimit:2;">
    <g transform="matrix(3.3257,0,0,3.3257,-4423.75,-4049.05)">
        <g transform="matrix(21.2029,0,0,21.2029,-4192.75,-3085.58)">
            <g>
                <g transform="matrix(75,0,0,75,257.367,247.994)">
                    <path d="M0.587,-0.424L0.477,-0.363C0.456,-0.385 0.435,-0.4 0.415,-0.408C0.394,-0.417 0.371,-0.421 0.343,-0.421C0.293,-0.421 0.253,-0.406 0.222,-0.376C0.192,-0.346 0.176,-0.308 0.176,-0.262C0.176,-0.216 0.191,-0.18 0.221,-0.151C0.25,-0.122 0.289,-0.108 0.337,-0.108C0.397,-0.108 0.443,-0.128 0.477,-0.169L0.582,-0.097C0.525,-0.023 0.444,0.014 0.34,0.014C0.247,0.014 0.174,-0.014 0.121,-0.069C0.068,-0.125 0.042,-0.189 0.042,-0.264C0.042,-0.315 0.054,-0.362 0.08,-0.406C0.106,-0.449 0.142,-0.483 0.188,-0.508C0.234,-0.533 0.285,-0.545 0.342,-0.545C0.395,-0.545 0.442,-0.534 0.484,-0.513C0.526,-0.492 0.561,-0.463 0.587,-0.424Z" style="fill:rgb(252,179,49);fill-rule:nonzero;"/>
                </g>
            </g>
        </g>
        <g transform="matrix(3.02907,0,0,3.02907,77.6614,762.858)">
            <circle cx="732.659" cy="325.961" r="32.573" style="fill:rgb(252,179,49);"/>
        </g>
    </g>
</svg>
