<svg width="30" height="30" viewBox="0 0 30 30" fill="none" xmlns="http://www.w3.org/2000/svg">
<path d="M29.2922 3.43284L26.5597 0.699713C26.1105 0.251631 25.502 0 24.8676 0C24.2332 0 23.6247 0.251631 23.1756 0.699713L20.4664 3.4094L2.58512 21.2896C2.52888 21.3459 2.48669 21.4162 2.45388 21.4912C2.4492 21.5053 2.43982 21.5193 2.43514 21.5334C2.43045 21.5428 2.42107 21.5521 2.42107 21.5615L0.0306506 29.1233C-0.0443431 29.3624 0.0212764 29.625 0.194699 29.7984C0.321251 29.9297 0.494674 30 0.668097 30C0.733716 30 0.804023 29.9906 0.869642 29.9672L8.43463 27.5763C8.444 27.5716 8.45338 27.5669 8.46744 27.5622C8.4815 27.5575 8.49556 27.5482 8.50962 27.5435C8.58462 27.5106 8.65024 27.4685 8.70648 27.4122L26.5878 9.5273L29.2969 6.81761C29.7469 6.36287 30 5.7628 30 5.12523C30 4.48765 29.7469 3.8829 29.2922 3.43284ZM20.9398 4.82988L22.5756 6.46601L5.6458 23.3992L4.01 21.7631L20.9398 4.82988ZM1.69926 28.2982L3.36787 23.0242L6.97225 26.6293L1.69926 28.2982ZM8.2284 25.987L6.5926 24.3509L23.5271 7.41768L25.1629 9.05381L8.2284 25.987ZM28.3454 5.87063L26.1144 8.10214L21.896 3.8829L24.1271 1.65139C24.5348 1.24353 25.2004 1.23884 25.6129 1.65139L28.3454 4.38452C28.5423 4.58141 28.6548 4.84863 28.6548 5.12523C28.6548 5.40182 28.5423 5.66904 28.3454 5.87063Z" fill="#ECECEC"/>
</svg>
