<?xml version="1.0" encoding="UTF-8" standalone="no"?>
<svg
   width="282"
   height="282"
   viewBox="0 0 282 282"
   fill="none"
   version="1.1"
   id="svg4"
   sodipodi:docname="Research Book.svg"
   inkscape:version="1.3.2 (091e20e, 2023-11-25, custom)"
   xmlns:inkscape="http://www.inkscape.org/namespaces/inkscape"
   xmlns:sodipodi="http://sodipodi.sourceforge.net/DTD/sodipodi-0.dtd"
   xmlns="http://www.w3.org/2000/svg"
   xmlns:svg="http://www.w3.org/2000/svg">
  <defs
     id="defs4" />
  <sodipodi:namedview
     id="namedview4"
     pagecolor="#505050"
     bordercolor="#ffffff"
     borderopacity="1"
     inkscape:showpageshadow="0"
     inkscape:pageopacity="0"
     inkscape:pagecheckerboard="1"
     inkscape:deskcolor="#505050"
     inkscape:zoom="2.682243"
     inkscape:cx="160.31359"
     inkscape:cy="130.67422"
     inkscape:window-width="2560"
     inkscape:window-height="1057"
     inkscape:window-x="-8"
     inkscape:window-y="-8"
     inkscape:window-maximized="1"
     inkscape:current-layer="svg4" />
  <path
     d="m 237.8634,253.07354 c -0.702,0 -1.405,-0.15 -2.057,-0.501 -24.777,-12.991 -53.516,-12.89 -87.974,0.2 l -3.16,-8.275 c 8.728,-3.311 17.304,-5.869 25.43,-7.624 8.426,-1.756 16.652,-2.709 24.476,-2.809 8.075,-0.1 15.899,0.752 23.373,2.458 5.316,1.204 10.482,2.909 15.498,5.066 v -15.699 h 8.878 v 22.72 c 0,1.555 -0.803,3.01 -2.157,3.812 -0.702,0.402 -1.505,0.652 -2.307,0.652 z m 4.464,-43.987 h -8.878 v -79.69801 c -5.116,-2.458 -10.433,-4.414 -15.9,-5.768 l 2.157,-8.6268 c 6.972,1.7558 13.793,4.3638 20.213,7.7238 1.455,0.753 2.357,2.257 2.357,3.912 v 82.40701 z"
     fill="#f0f0f0"
     id="path1" />
  <path
     d="m 147.8824,122.51753 c -1.153,-0.452 -2.307,-0.853 -3.41,-1.254 -7.574,-2.709 -14.947,-4.865 -22.069,-6.37 -8.376,-1.7555 -16.602,-2.7084 -24.426,-2.8088 -8.075,0 -15.9,0.7524 -23.373,2.5079 -7.6237,1.7554 -14.9967,4.5139 -21.9684,8.1249 -1.4545,0.803 -2.4075,2.308 -2.4075,3.963 v 53.31601 h 8.8776 v -50.60801 c 23.5233,-11.385 50.6583,-11.285 82.7583,0.351 v 112.55101 c -12.54,-4.314 -24.527,-6.922 -35.762,-7.875 l -0.752,8.878 c 12.238,0.953 25.479,4.163 39.372,9.48 0.502,0.2 1.004,0.25 1.555,0.25 0.903,0 1.756,-0.25 2.508,-0.752 0.502,-0.351 0.953,-0.803 1.204,-1.354 0.451,-0.652 0.702,-1.455 0.702,-2.307 V 126.68053 c 0,-1.856 -1.103,-3.511 -2.809,-4.163 z"
     fill="#f0f0f0"
     id="path2" />
  <path
     d="M 223.1674,85.602034 V 207.58254 c 0,1.354 -0.602,2.608 -1.705,3.46 -1.054,0.853 -2.408,1.154 -3.762,0.853 -27.135,-6.42 -45.492,4.163 -67.661,39.072 0.451,-0.703 0.702,-1.505 0.702,-2.358 v -14.445 c 16.903,-23.122 35.511,-36.614 63.598,-31.999 V 89.213334 c -25.028,-4.6646 -42.683,6.2193 -63.598,38.821196 v -1.355 c 0,-1.855 -1.103,-3.51 -2.809,-4.162 -1.153,-0.452 -2.307,-0.853 -3.41,-1.254 19.711,-30.144296 40.426,-48.200496 75.284,-39.974896 2.007,0.5015 3.411,2.257 3.411,4.3134 z m -76.89,188.888506 c -0.551,0 -1.053,-0.1 -1.555,-0.301 -31.448,-11.987 -57.729,-12.037 -80.3499,-0.201 l -4.1128,-7.874 c 6.42,-3.361 13.2417,-5.868 20.2627,-7.524 6.872,-1.605 14.094,-2.357 21.517,-2.257 7.173,0.051 14.746,0.953 22.521,2.558 7.022,1.505 14.344,3.612 21.818,6.42 7.473,-2.758 14.796,-4.915 21.818,-6.42 7.724,-1.655 15.297,-2.507 22.52,-2.558 7.423,-0.1 14.645,0.703 21.517,2.257 7.022,1.605 13.843,4.163 20.263,7.524 l -4.113,7.874 c -22.62,-11.836 -48.902,-11.786 -80.35,0.201 -0.502,0.201 -1.053,0.301 -1.555,0.301 z"
     fill="#fcb331"
     id="path3" />
  <path
     d="m 98.3784,206.42854 c -1.605,-3.812 -3.912,-7.273 -6.871,-10.182 -2.959,-2.909 -6.37,-5.266 -10.182,-6.871 -3.962,-1.655 -8.175,-2.508 -12.4889,-2.508 -4.3134,0 -8.5265,0.853 -12.4889,2.508 -3.8118,1.605 -7.2726,3.912 -10.1817,6.871 -2.909,2.96 -5.2664,6.37 -6.8714,10.182 -1.6552,3.962 -2.5078,8.176 -2.5078,12.489 0,4.313 0.8526,8.527 2.5078,12.489 0.6019,1.404 1.3542,2.658 2.1066,3.912 L 25,251.71954 l 6.2695,6.27 15.6989,-15.699 c 2.7586,2.608 5.8683,4.715 9.3792,6.169 3.9624,1.655 8.1755,2.508 12.4889,2.508 4.3139,0 8.5269,-0.853 12.4889,-2.508 3.812,-1.605 7.273,-3.912 10.182,-6.871 2.909,-2.96 5.266,-6.37 6.871,-10.182 1.655,-3.962 2.508,-8.176 2.508,-12.489 0,-4.313 -0.853,-8.527 -2.508,-12.489 z m -29.5419,35.711 c -12.7898,0 -23.2223,-10.432 -23.2223,-23.222 0,-12.79 10.4325,-23.222 23.2223,-23.222 12.7899,0 23.2219,10.432 23.2219,23.222 0,12.79 -10.432,23.222 -23.2219,23.222 z"
     fill="#f0f0f0"
     id="path4" />
</svg>
