<?xml version="1.0" encoding="UTF-8" standalone="no"?>
<svg
   width="282"
   height="282"
   viewBox="0 0 282 282"
   fill="none"
   version="1.1"
   id="svg3"
   sodipodi:docname="trust.svg"
   inkscape:version="1.3.2 (091e20e, 2023-11-25, custom)"
   xmlns:inkscape="http://www.inkscape.org/namespaces/inkscape"
   xmlns:sodipodi="http://sodipodi.sourceforge.net/DTD/sodipodi-0.dtd"
   xmlns="http://www.w3.org/2000/svg"
   xmlns:svg="http://www.w3.org/2000/svg">
  <defs
     id="defs3" />
  <sodipodi:namedview
     id="namedview3"
     pagecolor="#505050"
     bordercolor="#ffffff"
     borderopacity="1"
     inkscape:showpageshadow="0"
     inkscape:pageopacity="0"
     inkscape:pagecheckerboard="1"
     inkscape:deskcolor="#505050"
     inkscape:zoom="2.1589324"
     inkscape:cx="132.93608"
     inkscape:cy="162.81195"
     inkscape:window-width="2544"
     inkscape:window-height="1041"
     inkscape:window-x="0"
     inkscape:window-y="0"
     inkscape:window-maximized="0"
     inkscape:current-layer="svg3" />
  <path
     d="m 176.01654,184.21557 c -1.553,-0.179 -2.885,-0.919 -4.245,-1.647 -22.36,-11.977 -35.866,-35.34 -39.923,-59.884 -0.5,-3.0258 -2.066,-14.0057 -0.387,-16.1432 1.798,-2.2895 4.697,-0.6169 6.97,-0.2556 12.998,2.0679 27.704,-6.07179 34.575,-16.949886 0.922,-1.461 1.469,-2.9608 3.274,-3.4053 3.755,-0.1104 3.559,1.9692 5.513,4.6333 7.609,10.377586 20.483,17.754086 33.665,15.526686 5.573,-0.942 6.302,-0.7821 6.209,4.6742 -0.474,27.5827 -14.644,57.0848 -39.239,70.6618 -2.075,1.145 -4.063,2.324 -6.412,2.789 z m 0.982,-89.539291 c -7.851,9.706891 -17.09,16.370091 -29.992,17.678691 l -10.099,0.1014 c 1.553,24.7948 13.316,49.9052 35.09,63.0532 1.202,0.725 2.475,1.534 3.759,2.1 0.679,0.214 1.335,-0.303 1.957,-0.626 16.719,-8.717 28.479,-25.172 33.967,-42.9728 2.157,-6.9953 3.192,-14.4079 3.941,-21.673 -14.639,1.0879 -26.431,-3.5104 -36.328,-14.881591 z"
     fill="#fcb331"
     id="path1" />
  <path
     d="m 156.25654,140.81677 c -1.033,-1.9392 -2.595,-3.8167 -2.698,-6.1031 -0.153,-3.3946 3.721,-4.401 5.127,-2.6619 0.576,0.7125 0.947,1.6678 1.347,2.4913 l 1.838,3.473 c 1.809,3.0994 4.089,5.7185 6.405,8.4305 4.72,-8.4128 17.794,-19.3359 25.621,-24.2815 1.45,-0.9165 2.938,-2.0674 4.553,-2.6543 l 1.147,-0.0375 c 2.086,0.1256 3.354,2.0106 3.03,4.0027 -0.211,1.2954 -2.2,2.0859 -3.248,2.6909 -8.81,5.0909 -20.38,14.6089 -25.905,23.3767 -1.373,2.179 -1.938,5.577 -5.322,4.805 -3.497,-0.797 -10.133,-10.6867 -11.895,-13.5318 z m -14.612,118.5778 c -7.121,-2.508 -13.794,-5.925 -20.596,-9.164 -7.237,-3.445 -15.402,-8.741 -23.692605,-8.754 0.7738,2.113 2.2239,4.1 2.5398,6.36 0.572805,4.099 -2.631,8.702 -6.067,10.539 -2.7918,1.493 -6.0757,2.359 -9.0663,3.387 l -28.1788,9.34 c -7.2699,2.488 -7.9859,4.016 -10.4684,-4.556 l -2.5246,-8.731 c -3.2424,-11.401 -6.7436,-22.8 -8.8185,-34.487 -1.5512,-8.738 -2.4396,-16.594 7.2366,-21.454 4.6036,-2.312 9.8805,-3.607 14.7093,-5.405 l 6.905,-2.763 c 8.275,-3.409 15.495,-4.24 20.0559,4.931 8.7584,-3.354 22.244605,-7.55 31.095605,-8.036 11.203,-1.063 18.391,1.727 28.102,5.848 8.059,3.419 16.632,5.662 25.245,7.151 l 6.864,1.02 c 8.629,1.463 18.57,-3.014 23.371,7.87 l 4.103,-1.149 c 6.068,-1.248 12.205,-0.603 17.435,2.861 l 6.608,-3.732 c 6.515,-3.539 17.508,-10.04 22.512,-0.355 2.787,5.393 -0.929,10.726 -4.336,14.789 -15.798,18.839 -49.666,31.247 -73.122,35.425 -11.43,2.036 -18.922,2.66 -29.912,-0.935 z m -27.864,-62.649 c -9.613,0.865 -18.737805,4.904 -28.019605,7.332 l 9.2708,31.527 c 5.640805,-1.355 10.981805,0.874 16.139805,3.039 25.619,10.754 31.582,21.118 62.279,15.185 20.847,-4.029 56.262,-17.267 68.561,-35.263 1.005,-1.517 1.707,-2.784 2.036,-4.601 -2.676,-6.117 -10.46,-0.352 -14.234,1.665 l -10.985,6.33 c -4.087,2.23 -8.419,4.08 -12.723,5.847 -5.731,2.353 -8.844,3.308 -15.225,1.37 -7.527,-2.287 -11.301,-1.334 -18.911,-0.342 -3.677,0.479 -18.424,1.374 -20.629,-2.694 -0.742,-1.369 -0.506,-3.312 1.007,-4.046 1.164,-0.565 3.464,-0.042 4.666,0.306 6.95,2.008 20.773,-1.821 28.89,-1.923 7.604,-0.095 9.506,-7.984 2.258,-9.433 -1.252,-0.25 -2.633,-0.163 -3.909,-0.166 l -7.334,-0.036 c -1.589,-0.063 -3.181,-0.334 -4.757,-0.54 l -9.763,-1.587 c -6.642,-1.298 -13.166,-3.096 -19.482,-5.542 -12.585,-4.875 -14.927,-6.876 -29.136,-6.428 z m -41.029105,0.6 c -4.1506,0.395 -7.9986,2.852 -11.873,4.239 l -10.4591,3.615 c -5.8848,2.071 -11.2744,3.751 -10.5057,11.091 0.5556,5.305 1.7184,10.537 2.9644,15.716 l 9.3716,34.115 6.2551,-2.174 26.6085,-8.816 c 9.6422,-3.137 8.7631,-3.953 6.0119,-12.124 l -9.5845,-31.773 c -1.4668,-4.663 -2.7394,-13.527 -8.7892,-13.889 z m 135.025105,19.561 c -2.711,-0.056 -6.042,0.447 -8.618,1.327 l -2.111,2.864 c -0.792,0.987 -1.563,2.11 -2.557,2.886 1.676,0.065 3.444,0.231 5.09,-0.158 2.501,-0.716 11.54,-4.762 13.617,-6.312 -1.61,-0.652 -3.694,-0.734 -5.421,-0.607 z"
     fill="#ececec"
     id="path2" />
  <path
     d="m 77.965435,252.22557 c -12.7843,0.255 -14.126,-17.906 -1.065,-18.937 11.4108,-0.672 14.4868,16.619 1.065,18.937 z m -1.681,-12.63 c -4.2327,1.673 -2.7231,6.777 1.9013,6.281 4.2335,-1.798 2.8817,-6.601 -1.9013,-6.281 z"
     fill="#ececec"
     id="path3" />
</svg>
